<?xml version="1.0" encoding="UTF-8" standalone="no"?>
<svg
   xmlns:dc="http://purl.org/dc/elements/1.1/"
   xmlns:cc="http://creativecommons.org/ns#"
   xmlns:rdf="http://www.w3.org/1999/02/22-rdf-syntax-ns#"
   xmlns:svg="http://www.w3.org/2000/svg"
   xmlns="http://www.w3.org/2000/svg"
   xmlns:sodipodi="http://sodipodi.sourceforge.net/DTD/sodipodi-0.dtd"
   xmlns:inkscape="http://www.inkscape.org/namespaces/inkscape"
   width="12pt"
   height="12pt"
   viewBox="0 0 12 12"
   version="1.1"
   id="svg20"
   sodipodi:docname="Unicode 0x039E.svg"
   inkscape:version="0.92.5 (2060ec1f9f, 2020-04-08)">
  <metadata
     id="metadata26">
    <rdf:RDF>
      <cc:Work
         rdf:about="">
        <dc:format>image/svg+xml</dc:format>
        <dc:type
           rdf:resource="http://purl.org/dc/dcmitype/StillImage" />
        <dc:title />
      </cc:Work>
    </rdf:RDF>
  </metadata>
  <defs
     id="defs24" />
  <sodipodi:namedview
     pagecolor="#ffffff"
     bordercolor="#666666"
     borderopacity="1"
     objecttolerance="10"
     gridtolerance="10"
     guidetolerance="10"
     inkscape:pageopacity="0"
     inkscape:pageshadow="2"
     inkscape:window-width="1920"
     inkscape:window-height="1009"
     id="namedview22"
     showgrid="false"
     inkscape:zoom="59"
     inkscape:cx="7.1730704"
     inkscape:cy="10.499181"
     inkscape:window-x="0"
     inkscape:window-y="0"
     inkscape:window-maximized="1"
     inkscape:current-layer="svg20"
     inkscape:snap-object-midpoints="true"
     inkscape:snap-center="true"
     inkscape:snap-smooth-nodes="true"
     showguides="false" />
  <g
     aria-label="Ξ"
     style="font-style:normal;font-variant:normal;font-weight:normal;font-stretch:normal;font-size:7.99999952px;line-height:0;font-family:Andika;-inkscape-font-specification:Andika;font-variant-ligatures:normal;font-variant-caps:normal;font-variant-numeric:normal;font-feature-settings:normal;text-align:start;writing-mode:lr-tb;text-anchor:start;opacity:1;vector-effect:none;fill:#000006;fill-opacity:1;stroke:none;stroke-width:0.15000001;stroke-linecap:square;stroke-linejoin:bevel;stroke-miterlimit:4;stroke-dasharray:none;stroke-dashoffset:0;stroke-opacity:1;paint-order:markers stroke fill"
     id="text818-3">
    <path
       style="font-style:normal;font-variant:normal;font-weight:normal;font-stretch:normal;font-size:11.5px;line-height:0;font-family:'Gentium Book Plus';-inkscape-font-specification:'Gentium Book Plus';stroke-width:0.2"
       d="M 5.0957032,2.5078125 C 5.060764,2.6825087 5.0251737,2.907118 4.9902345,3.1816406 4.9602866,3.4561632 4.9331599,3.7369791 4.9082032,4.0214844 4.8832466,4.3009982 4.8654515,4.5377605 4.8554689,4.7324219 L 5.2519532,4.8671875 C 5.4066839,4.4129775 5.5236544,4.0957031 5.6035158,3.9160156 5.6833769,3.7363281 5.8294272,3.6464844 6.0390626,3.6464844 c 1.3248698,0 2.6497396,0 3.9746094,0 0.219618,0 0.392795,0.092665 0.517578,0.2773437 0.129774,0.1846789 0.238281,0.4878473 0.328125,0.9121094 h 0.412109 c 0.04492,-0.3244357 0.08616,-0.6959635 0.121094,-1.1152344 0.03494,-0.4192708 0.05642,-0.7552083 0.06641,-1.0097656 l -0.253906,-0.203125 c -2.0364583,0 -4.0729165,0 -6.1093748,0 z M 6.3222658,5.6972656 6.091797,8.5429688 h 0.3964844 c 0.069878,-0.3593751 0.1597222,-0.6017796 0.2695312,-0.7265626 0.1148004,-0.124783 0.2046442,-0.1875 0.2695313,-0.1875 h 1.8105469 c 0.064887,10e-8 0.1510416,0.068359 0.2558593,0.203125 0.1098091,0.1347657 0.1968317,0.3715279 0.2617188,0.7109376 H 9.7519532 L 9.9843751,5.6972656 H 9.5878908 c -0.064887,0.359375 -0.1660156,0.5989583 -0.3007813,0.71875 -0.1347656,0.1148003 -0.233941,0.171875 -0.2988281,0.171875 h -1.8125 c -0.069878,0 -0.1456163,-0.063585 -0.2304688,-0.1933594 C 6.8654512,6.264757 6.7905815,6.031684 6.7207032,5.6972656 Z m 4.8671872,3.8632813 c -0.109809,0.3244357 -0.196831,0.5724821 -0.261719,0.7421871 -0.06489,0.169705 -0.134114,0.286676 -0.208984,0.351563 -0.06988,0.06489 -0.171007,0.09766 -0.300781,0.09766 -1.5371095,0 -3.0742188,0 -4.6113282,0 -0.2196181,0 -0.3871528,-0.08051 -0.5019532,-0.240234 -0.109809,-0.164714 -0.2239583,-0.458551 -0.34375,-0.8828128 H 4.5410158 c -0.029948,0.3793408 -0.054254,0.7630208 -0.074219,1.1523438 -0.014974,0.384332 -0.026259,0.695963 -0.03125,0.935547 l 0.2636719,0.224609 c 2.2285157,0 4.4570314,0 6.6855471,0 0.02496,-0.174696 0.04644,-0.396484 0.06641,-0.666015 0.02496,-0.274523 0.04557,-0.549697 0.06055,-0.824219 0.01997,-0.279514 0.03776,-0.5162761 0.05273,-0.7109376 z"
       transform="scale(0.75)"
       id="path6911"
       inkscape:connector-curvature="0"
       sodipodi:nodetypes="cccccccccccccccccccscccccccssccccccccccccccccccc" />
  </g>
</svg>
